<svg width="1600" height="1600" viewBox="0 0 1600 1600" fill="none" xmlns="http://www.w3.org/2000/svg">
<g clip-path="url(#clip0_24034_5142)">
<path d="M208.367 1085.81C175.402 1018.22 155.379 944.32 151.843 867.717C144.068 713.075 191.499 474.541 345.518 312.193C446.749 205.858 581.12 149.221 733.551 147.861C1096.36 147.145 1382.65 358.202 1446.08 674.397C1448.78 690.882 1442.19 706.556 1429.95 714.312C1489.53 913.114 1466.2 1029.52 1436.1 1106.51C1386.18 1234.11 1278.6 1331.08 1112 1390.97C870.683 1480.19 621.168 1457.69 426.375 1328.4C329.684 1265.19 254.663 1180.72 208.371 1085.81L208.367 1085.81ZM1228.21 417.503C1112.06 296.139 938.866 225.737 734.911 227.303C603.243 227.438 492.583 274.288 405.806 366.46C267.71 510.357 226.242 724.624 232.757 862.079C240.498 1020.3 327.79 1166.42 470.676 1262.29C644.144 1377.06 867.915 1397.87 1084.82 1317C1228.45 1264.75 1320.84 1184.09 1361.95 1078.58C1438.32 881.121 1323.5 623.812 1230.07 446.859C1225.86 438.232 1223.83 426.76 1228.21 417.501L1228.21 417.503Z" fill="#1C1917"/>
<path d="M756.971 1473.34C747.151 1453.21 755.254 1429.67 775.388 1419.85C842.279 1385.45 760.391 1199.31 724.69 1118.81C714.204 1093.66 704.384 1073.53 699.508 1059.89C693.263 1039.79 674.543 979.497 711.405 941.93C753.354 896.546 829.013 916.615 910.378 937.45C953.203 948.609 1011.74 962.777 1031.14 955.1C1025.56 940.019 1001.54 909.011 986.707 889.543C940.763 831.843 873.636 745.313 941.542 680.15C1008.01 615.686 1142.41 628.462 1196.71 637.584C1287.44 652.078 1405.85 690.452 1438.88 750.887C1448.7 771.021 1442.04 793.852 1422.61 805.109C1403.17 816.367 1379.64 808.264 1368.38 788.83C1357.13 769.397 1285.23 731.479 1184.49 714.745C1098.04 701.728 1023.54 709.582 996.811 735.076C980.919 749.949 1022.62 802.596 1050.18 837.213C1087.64 884.807 1124.39 930.973 1111.06 976.636C1106.61 993.051 1094.22 1015.11 1059.74 1028.37C1015.93 1044.39 955.257 1029.48 890.304 1013.1C853.895 1004.16 786.802 987.032 769.542 995.451C769.506 999.026 767.26 1009.02 776.311 1034.87C779.082 1044.2 788.902 1064.34 797.986 1086.61C849.781 1203.76 947.098 1421.54 809.747 1490.31C790.316 1501.57 766.784 1493.47 756.964 1473.33L756.971 1473.34Z" fill="#1C1917"/>
<path d="M192.593 943.973C183.474 925.276 190.14 902.444 206.693 892.592C261.41 858.783 323.524 872.992 373.505 884.218C387.777 887.937 403.491 890.951 414.224 891.06C502.853 901.238 567.392 887.562 620.006 849.442C648.835 828.259 661.955 804.058 658.66 775.406C653.368 731.704 608.09 679.016 558.18 660.638L464.82 622.502L560.365 584.802C567.555 581.295 576.883 578.525 587.654 575.05C737.775 517.855 773.129 488.146 776.148 472.436C776.148 472.436 772.641 465.246 754.862 454.337C727.122 437.607 644.314 417.468 544.877 414.34C444.005 411.913 363.685 429.729 331.904 459.466C316.013 474.338 290.974 474.086 276.103 458.2C261.231 442.309 261.483 417.27 277.369 402.4C384.982 301.852 707.449 327.927 799.164 388.225C851.072 421.656 857.875 457.499 855.487 481.809C848.401 547.571 764.955 591.827 663.658 632.332C701.954 667.059 733.694 713.884 739.619 766.179C746.914 824.927 721.342 878.346 668.027 915.029C577.214 980.68 474.907 978.96 407.004 971.132C391.99 969.554 375.58 965.099 358.426 962.779C318.442 953.799 277.022 945.52 251.1 961.721C231.666 972.978 207.398 967.013 196.845 949.022C193.994 946.849 193.293 945.411 192.592 943.974L192.593 943.973Z" fill="#1C1917"/>
</g>
<defs>
<clipPath id="clip0_24034_5142">
<rect width="1600" height="1600" fill="white"/>
</clipPath>
</defs>
</svg>
